# xmcd CD database file
#
# Track frame offsets:
#	150
#	16066
#	34468
#	49501
#	67701
#	80626
#	102813
#	114834
#	127588
#	144011
#	160516
#	180775
#	194796
#	210069
#
# Disc length: 3023 seconds
#
# Revision: 1
# Processed by: cddbd v1.5.2PL0 Copyright (c) Steve Scherf et al.
# Submitted via: CDex 1.70beta2
#
DISCID=980bcd0e
DTITLE=Colt Ford - Answer To No One: The Colt Ford Classics
DYEAR=2015
DGENRE=Country
TTITLE0=Answer To No One (f JJ Lawhorn)
TTITLE1=The High Life (f Chase Rice)
TTITLE2=Crank It Up
TTITLE3=Back (f Jake Owen)
TTITLE4=Huntin' The World
TTITLE5=Waste Some Time (f Nappy Roots and Nic Cowan)
TTITLE6=Cut 'Em All (f Willie Robertson)
TTITLE7=Country Thang (f Eric Church)
TTITLE8=Drivin' Around Song (f Jason Aldean)
TTITLE9=Cold Beer (f Jamey Johnson)
TTITLE10=Ride Through The Country (f John Michael Montgomery)
TTITLE11=Chicken and Biscuits (f James Otto)
TTITLE12=No Trash In My Trailer
TTITLE13=Dirt Road Anthem (f Brantley Gilbert)
EXTD=YEAR: 2015
EXTT0=
EXTT1=
EXTT2=
EXTT3=
EXTT4=
EXTT5=
EXTT6=
EXTT7=
EXTT8=
EXTT9=
EXTT10=
EXTT11=
EXTT12=
EXTT13=
PLAYORDER=
